<svg width="539" height="142" viewBox="0 0 539 142" fill="none" xmlns="http://www.w3.org/2000/svg">
<path d="M390.312 58.1846V0.00280762H406.108V45.4574H429.63V58.1846H390.312Z" fill="#EDF738"/>
<path d="M340.154 58.1846H323.108L342.313 0.00280762H363.904L383.108 58.1846H366.063L353.336 16.0255H352.881L340.154 58.1846ZM336.972 35.2301H369.018V47.0483H336.972V35.2301Z" fill="#EDF738"/>
<path d="M273.675 58.1846V0.00280762H315.607V12.7301H289.47V22.7301H313.447V35.4574H289.47V45.4574H315.493V58.1846H273.675Z" fill="#EDF738"/>
<path d="M224.312 0.00280762L236.244 41.0255H236.698L248.63 0.00280762H266.471L247.266 58.1846H225.676L206.471 0.00280762H224.312Z" fill="#EDF738"/>
<path d="M157.037 58.1846V0.00280762H198.969V12.7301H172.833V22.7301H196.81V35.4574H172.833V45.4574H198.855V58.1846H157.037Z" fill="#EDF738"/>
<path d="M102 58.1846V0.00280762H127.113C131.432 0.00280762 135.21 0.788794 138.449 2.36076C141.687 3.93273 144.206 6.19599 146.005 9.15054C147.805 12.1051 148.704 15.6467 148.704 19.7755C148.704 23.9422 147.776 27.4555 145.92 30.3153C144.083 33.1752 141.498 35.3343 138.164 36.7926C134.85 38.2509 130.977 38.9801 126.545 38.9801H111.545V26.7074H123.363C125.219 26.7074 126.801 26.4801 128.108 26.0255C129.433 25.5521 130.447 24.8039 131.147 23.7812C131.867 22.7585 132.227 21.4233 132.227 19.7755C132.227 18.1089 131.867 16.7547 131.147 15.713C130.447 14.6524 129.433 13.8759 128.108 13.3835C126.801 12.8721 125.219 12.6164 123.363 12.6164H117.795V58.1846H102ZM136.091 31.4801L150.636 58.1846H133.477L119.272 31.4801H136.091Z" fill="#EDF738"/>
<path d="M488.032 89.7301V77.0028H538.6V89.7301H521.1V135.185H505.532V89.7301H488.032Z" fill="#EDF738"/>
<path d="M466.106 95.1846C465.954 93.2907 465.244 91.8134 463.975 90.7528C462.725 89.6922 460.821 89.1619 458.265 89.1619C456.636 89.1619 455.301 89.3608 454.259 89.7585C453.236 90.1373 452.479 90.6581 451.986 91.321C451.494 91.9839 451.238 92.7414 451.219 93.5937C451.181 94.2945 451.304 94.9289 451.588 95.4971C451.892 96.0464 452.365 96.5483 453.009 97.0028C453.653 97.4384 454.477 97.8361 455.481 98.196C456.484 98.5558 457.677 98.8778 459.06 99.1619L463.833 100.185C467.052 100.866 469.808 101.766 472.1 102.883C474.391 104.001 476.266 105.317 477.725 106.832C479.183 108.329 480.253 110.014 480.935 111.889C481.636 113.764 481.996 115.81 482.015 118.026C481.996 121.851 481.039 125.09 479.145 127.741C477.251 130.393 474.543 132.41 471.02 133.793C467.517 135.175 463.302 135.866 458.378 135.866C453.321 135.866 448.909 135.118 445.14 133.622C441.39 132.126 438.473 129.825 436.39 126.719C434.325 123.594 433.284 119.598 433.265 114.73H448.265C448.359 116.51 448.804 118.007 449.6 119.219C450.395 120.431 451.513 121.349 452.952 121.974C454.41 122.599 456.143 122.912 458.151 122.912C459.837 122.912 461.248 122.704 462.384 122.287C463.52 121.87 464.382 121.293 464.969 120.554C465.556 119.815 465.859 118.973 465.878 118.026C465.859 117.135 465.566 116.359 464.998 115.696C464.448 115.014 463.539 114.408 462.27 113.878C461.001 113.329 459.287 112.817 457.128 112.344L451.333 111.094C446.181 109.976 442.119 108.111 439.145 105.497C436.191 102.865 434.723 99.2755 434.742 94.7301C434.723 91.0369 435.708 87.8077 437.696 85.0426C439.704 82.2585 442.479 80.0899 446.02 78.5369C449.581 76.9839 453.662 76.2074 458.265 76.2074C462.962 76.2074 467.024 76.9933 470.452 78.5653C473.88 80.1373 476.522 82.3532 478.378 85.213C480.253 88.0539 481.2 91.3778 481.219 95.1846H466.106Z" fill="#EDF738"/>
<path d="M421.544 70.4119V141.776H395.408V130.412H406.317V81.7755H395.408V70.4119H421.544Z" fill="#EDF738"/>
<path d="M347.749 135.185H330.704L349.908 77.0028H371.499L390.704 135.185H373.658L360.931 93.0255H360.477L347.749 135.185ZM344.567 112.23H376.613V124.048H344.567V112.23Z" fill="#EDF738"/>
<path d="M299.892 141.776V70.4119H326.029V81.7755H315.119V130.412H326.029V141.776H299.892Z" fill="#EDF738"/>
<path d="M244.436 135.185V77.0028H286.367V89.7301H260.231V99.7301H284.208V112.457H260.231V122.457H286.254V135.185H244.436Z" fill="#EDF738"/>
<path d="M189.398 135.185V77.0028H214.625C219.057 77.0028 222.779 77.5994 225.79 78.7926C228.82 79.9858 231.103 81.6714 232.637 83.8494C234.19 86.0274 234.966 88.5937 234.966 91.5483C234.966 93.6884 234.493 95.6392 233.546 97.4005C232.618 99.1619 231.311 100.639 229.625 101.832C227.94 103.007 225.97 103.821 223.716 104.276V104.844C226.216 104.938 228.489 105.573 230.534 106.747C232.58 107.902 234.209 109.503 235.421 111.548C236.633 113.575 237.239 115.961 237.239 118.707C237.239 121.889 236.406 124.721 234.739 127.202C233.091 129.683 230.743 131.633 227.694 133.054C224.644 134.474 221.008 135.185 216.785 135.185H189.398ZM205.194 122.571H212.58C215.231 122.571 217.22 122.079 218.546 121.094C219.872 120.09 220.535 118.613 220.535 116.662C220.535 115.298 220.222 114.143 219.597 113.196C218.972 112.249 218.082 111.529 216.927 111.037C215.79 110.544 214.417 110.298 212.807 110.298H205.194V122.571ZM205.194 100.526H211.671C213.053 100.526 214.275 100.308 215.336 99.8721C216.396 99.4365 217.22 98.8115 217.807 97.9971C218.413 97.1638 218.716 96.1505 218.716 94.9574C218.716 93.1581 218.072 91.785 216.785 90.838C215.497 89.8721 213.868 89.3892 211.898 89.3892H205.194V100.526Z" fill="#EDF738"/>
<path d="M120.495 135.185V77.0028H162.427V89.7301H136.29V99.7301H160.268V112.457H136.29V122.457H162.313V135.185H120.495Z" fill="#EDF738"/>
<path d="M58.895 135.185V77.0028H74.6905V99.7301H95.5996V77.0028H111.395V135.185H95.5996V112.457H74.6905V135.185H58.895Z" fill="#EDF738"/>
<path d="M0.782227 89.7301V77.0028H51.3504V89.7301H33.8504V135.185H18.2822V89.7301H0.782227Z" fill="#EDF738"/>
</svg>
